<?xml version="1.0" encoding="UTF-8" standalone="no"?>
<!-- Created with Inkscape (http://www.inkscape.org/) -->

<svg
   xmlns:dc="http://purl.org/dc/elements/1.1/"
   xmlns:cc="http://creativecommons.org/ns#"
   xmlns:rdf="http://www.w3.org/1999/02/22-rdf-syntax-ns#"
   xmlns:svg="http://www.w3.org/2000/svg"
   xmlns="http://www.w3.org/2000/svg"
   xmlns:sodipodi="http://sodipodi.sourceforge.net/DTD/sodipodi-0.dtd"
   xmlns:inkscape="http://www.inkscape.org/namespaces/inkscape"
   id="svg2"
   version="1.1"
   inkscape:version="0.91 r13725"
   width="384"
   height="384"
   viewBox="0 0 384 384"
   sodipodi:docname="im-pc125.svg">
  <metadata
     id="metadata8">
    <rdf:RDF>
      <cc:Work
         rdf:about="">
        <dc:format>image/svg+xml</dc:format>
        <dc:type
           rdf:resource="http://purl.org/dc/dcmitype/StillImage" />
        <dc:title />
      </cc:Work>
    </rdf:RDF>
  </metadata>
  <defs
     id="defs6" />
  <sodipodi:namedview
     pagecolor="#ffffff"
     bordercolor="#666666"
     borderopacity="1"
     objecttolerance="10"
     gridtolerance="10"
     guidetolerance="10"
     inkscape:pageopacity="0"
     inkscape:pageshadow="2"
     inkscape:window-width="1360"
     inkscape:window-height="750"
     id="namedview4"
     showgrid="false"
     inkscape:zoom="1.4142136"
     inkscape:cx="175.59139"
     inkscape:cy="208.22921"
     inkscape:window-x="0"
     inkscape:window-y="0"
     inkscape:window-maximized="1"
     inkscape:current-layer="g3360" />
  <g
     id="g3360"
     transform="matrix(6.0671175,0,0,6.0587901,-775.14532,-931.89355)">
    <path
       id="path4"
       d="m 159.36471,153.80853 c -8.682,0 -16.322,3.21299 -22.226,9.203 -6.078,6.16399 -9.377,14.15199 -9.377,22.48599 0,8.422 3.212,16.236 9.29,22.313 6.078,6.078 13.978,9.37699 22.313,9.37699 8.334,0 16.409,-3.29899 22.66,-9.46299 5.904,-5.817 9.029,-13.544 9.029,-22.227 0,-8.595 -3.125,-16.40799 -9.116,-22.399 -6.077,-6.078 -13.891,-9.28999 -22.573,-9.28999 z m 0.086,5.72999 c 7.12,0 13.458,2.691 18.406,7.641 4.862,4.861 7.466,11.286 7.466,18.318 0,7.119 -2.518,13.37101 -7.379,18.146 -5.123,5.035 -11.721,7.727 -18.493,7.727 -6.858,0 -13.283,-2.691 -18.232,-7.641 -4.949,-4.949 -7.727,-11.46 -7.727,-18.232 0,-6.858 2.778,-13.369 7.727,-18.406 4.862,-4.948 11.113,-7.553 18.232,-7.553 z"
       inkscape:connector-curvature="0" />
    <g
       id="g3865"
       transform="translate(0.12852543,0.00100129)">
      <path
         inkscape:connector-curvature="0"
         style="fill:#FCF6FC"
         d="m 161.33975,191.01061 a 11.707725,12.285663 0 1 1 0.031,-10.96193 l -10.4916,5.44834 z"
         id="path3424" />
      <path
              style="fill:#8A2BE2"
              d="m 179.28385,180.23252 c -1.79,-3.264 -4.844,-4.563 -8.389,-4.563 -5.16,0 -9.267,3.65 -9.267,9.828 0,6.283 3.861,9.829 9.442,9.829 3.581,0 6.635,-1.966 8.319,-4.949 l -3.931,-2.001 c -0.878,2.105 -2.212,2.738 -3.896,2.738 -2.914,0 -4.248,-2.422 -4.248,-5.617 0,-3.193 1.124,-5.616 4.248,-5.616 0.842,0 2.527,0.456 3.51,2.563 l 4.212,-2.212 z"
         id="use7"
         inkscape:connector-curvature="0" />
    </g>
    <path
       style="fill:#8A2BE2"
       inkscape:connector-curvature="0"
       d="m 159.36488,153.89177 c -8.64731,0 -16.25678,3.20456 -22.13718,9.17883 -6.05372,6.1478 -9.33953,14.11482 -9.33953,22.42692 0,8.39988 3.19916,16.19335 9.25287,22.25439 6.05372,6.06203 13.92215,9.35236 22.22384,9.35236 8.3007,0 16.34343,-3.29033 22.56945,-9.43814 5.88041,-5.80172 8.99292,-13.50842 8.99292,-22.16861 0,-8.57242 -3.11251,-16.36489 -9.07957,-22.34015 -6.05272,-6.06204 -13.83549,-9.2656 -22.4828,-9.2656 z m 0.0857,5.71495 c 7.09155,0 13.40422,2.68393 18.33245,7.62093 4.84257,4.84823 7.43616,11.25635 7.43616,18.26987 0,7.1003 -2.50793,13.33588 -7.34951,18.09833 -5.10253,5.02178 -11.67416,7.7067 -18.4191,7.7067 -6.8306,0 -13.22992,-2.68393 -18.15915,-7.62092 -4.92922,-4.936 -7.69612,-11.4299 -7.69612,-18.18411 0,-6.83998 2.7669,-13.33387 7.69612,-18.35764 4.84257,-4.935 11.06859,-7.53316 18.15915,-7.53316 z"
       id="path3659" />
  </g>
</svg>
